<svg xmlns="http://www.w3.org/2000/svg" xmlns:xlink="http://www.w3.org/1999/xlink" fill="none" version="1.1" width="818" height="105" viewBox="0 0 818 105"><defs><clipPath id="master_svg0_42_49"><rect x="0" y="0" width="818" height="105" rx="0"/></clipPath><linearGradient x1="1" y1="-38" x2="777.3953111171722" y2="120" gradientUnits="userSpaceOnUse" id="master_svg1_42_4452"><stop offset="0%" stop-color="#E8AA2E" stop-opacity="1"/><stop offset="100%" stop-color="#F1D51A" stop-opacity="1"/></linearGradient></defs><g clip-path="url(#master_svg0_42_49)"><g><path d="M17.875,4.625L45,4.625L30.25,73.5L55.625,73.5L53.5,84L1,84L17.875,4.625ZM85.375,84L60,84L71.375,30.25L97,30.25L85.375,84ZM100.25,13.875Q100.25,16.75,99.0625,18.875Q97.875,21,95.9375,22.5Q94,24,91.5,24.75Q89,25.5,86.375,25.5Q81.375,25.5,78,23.125Q74.625,20.75,74.625,15.625Q74.625,12.875,75.75,10.6875Q76.875,8.5,78.8125,7.0625Q80.75,5.625,83.3125,4.875Q85.875,4.125,88.625,4.125Q93.5,4.125,96.875,6.5Q100.25,8.875,100.25,13.875ZM148.875,30.25L169.125,30.25L158.875,78.875Q157.75,84.5,155.125,89.25Q152.5,94,147.8125,97.5Q143.125,101,136.0625,103Q129,105,118.875,105Q117,105,114.375,104.9375Q111.75,104.875,109,104.8125Q106.25,104.75,103.75,104.625Q101.25,104.5,99.75,104.375L102.125,95.375Q106.125,96,110.3125,96.0625Q114.5,96.125,117.5,96.125Q121.25,96.125,123.8125,95.4375Q126.375,94.75,128.0625,93.25Q129.75,91.75,130.8125,89.25Q131.875,86.75,132.5,83.125L134,75L133.125,75Q132.375,76.125,130.9375,77.6875Q129.5,79.25,127.25,80.6875Q125,82.125,121.9375,83.0625Q118.875,84,115,84Q110.625,84,107.5625,82.6875Q104.5,81.375,102.625,79.0625Q100.75,76.75,99.875,73.5625Q99,70.375,99,66.625Q99,65,99.25,61.625Q99.5,58.25,100.4375,54Q101.375,49.75,103.1875,45.3125Q105,40.875,108.0625,37.25Q111.125,33.625,115.6875,31.25Q120.25,28.875,126.75,28.875Q128.75,28.875,131.125,29.25Q133.5,29.625,135.75,30.625Q138,31.625,139.75,33.5Q141.5,35.375,142.5,38.375L143.25,38.375L148.875,30.25ZM134.875,41.125Q131.875,41.125,129.875,44.3125Q127.875,47.5,126.625,51.75Q125.375,56,124.8125,60.1875Q124.25,64.375,124.25,66.375Q124.25,68.875,125.0625,70.5625Q125.875,72.25,128,72.25Q129.25,72.25,130.4375,71.625Q131.625,71,132.6875,70.1875Q133.75,69.375,134.5625,68.5Q135.375,67.625,135.75,67.125L140.375,45.25Q139.375,43.875,138.0625,42.5Q136.75,41.125,134.875,41.125ZM204.125,38.25L205,38.25Q207.375,35.875,210.5,33.875Q213.125,32.125,216.75,30.75Q220.375,29.375,224.875,29.375Q231.375,29.375,235.625,32.6875Q239.875,36,239.875,41.75Q239.875,43.5,239.5,45.6875Q239.125,47.875,238.625,50.3125Q238.125,52.75,237.5625,55.1875Q237,57.625,236.625,59.625L231.375,84L206,84L212.875,51.375Q213.125,49.75,213.5,48.0625Q213.875,46.375,213.875,45Q213.875,43.125,212.9375,41.9375Q212,40.75,210.125,40.75Q207.875,40.75,205.8125,42.375Q203.75,44,202.625,45.25L194.375,84L168.875,84L186.625,0L212.25,0L204.125,38.25ZM248.5,30.25Q253.125,29.25,256.625,28Q260.125,26.75,263.0625,24.875Q266,23,268.6875,20.25Q271.375,17.5,274.5,13.5L287.375,13.5L283.75,30.25L293.5,30.25L291.875,38.625L282,38.625L276.875,63Q276.25,65.875,275.875,68.125Q275.5,70.375,275.5,71.625Q275.5,74.125,277.3125,74.75Q279.125,75.375,284.125,75.375L282.25,84Q281.375,84.25,279.5625,84.375Q277.75,84.5,275.5625,84.6875Q273.375,84.875,271.0625,84.9375Q268.75,85,267,85Q263.875,85,260.875,84.5625Q257.875,84.125,255.5,82.8125Q253.125,81.5,251.6875,79Q250.25,76.5,250.25,72.25Q250.25,70.75,250.4375,68.5Q250.625,66.25,251.25,63.5L256.5,38.625L246.75,38.625L248.5,30.25ZM325.25,38.25Q327.875,35.75,331.125,33.625Q334,31.875,337.875,30.375Q341.75,28.875,346.5,28.875Q353,28.875,357.25,32.1875Q361.5,35.5,361.5,41.25Q361.5,42.875,361.125,45.1875Q360.75,47.5,360.25,50Q359.75,52.5,359.1875,55.0625Q358.625,57.625,358.25,59.625L353,84L327.625,84L334.5,51.375Q334.75,49.75,335.125,48.0625Q335.5,46.375,335.5,45Q335.5,43.125,334.5625,41.9375Q333.625,40.75,331.75,40.75Q329.5,40.75,327.4375,42.375Q325.375,44,324.25,45.125L316,84L290.5,84L301.875,30.25L322.25,30.25L324.5,38.25L325.25,38.25ZM389.125,84L363.75,84L375.125,30.25L400.75,30.25L389.125,84ZM404,13.875Q404,16.75,402.8125,18.875Q401.625,21,399.6875,22.5Q397.75,24,395.25,24.75Q392.75,25.5,390.125,25.5Q385.125,25.5,381.75,23.125Q378.375,20.75,378.375,15.625Q378.375,12.875,379.5,10.6875Q380.625,8.5,382.5625,7.0625Q384.5,5.625,387.0625,4.875Q389.625,4.125,392.375,4.125Q397.25,4.125,400.625,6.5Q404,8.875,404,13.875ZM435.125,38.25Q437.75,35.75,441,33.625Q443.875,31.875,447.75,30.375Q451.625,28.875,456.375,28.875Q462.875,28.875,467.125,32.1875Q471.375,35.5,471.375,41.25Q471.375,42.875,471,45.1875Q470.625,47.5,470.125,50Q469.625,52.5,469.0625,55.0625Q468.5,57.625,468.125,59.625L462.875,84L437.5,84L444.375,51.375Q444.625,49.75,445,48.0625Q445.375,46.375,445.375,45Q445.375,43.125,444.4375,41.9375Q443.5,40.75,441.625,40.75Q439.375,40.75,437.3125,42.375Q435.25,44,434.125,45.125L425.875,84L400.375,84L411.75,30.25L432.125,30.25L434.375,38.25L435.125,38.25ZM525.875,30.25L546.125,30.25L535.875,78.875Q534.75,84.5,532.125,89.25Q529.5,94,524.8125,97.5Q520.125,101,513.0625,103Q506,105,495.875,105Q494,105,491.375,104.9375Q488.75,104.875,486,104.8125Q483.25,104.75,480.75,104.625Q478.25,104.5,476.75,104.375L479.125,95.375Q483.125,96,487.3125,96.0625Q491.5,96.125,494.5,96.125Q498.25,96.125,500.8125,95.4375Q503.375,94.75,505.0625,93.25Q506.75,91.75,507.8125,89.25Q508.875,86.75,509.5,83.125L511,75L510.125,75Q509.375,76.125,507.9375,77.6875Q506.5,79.25,504.25,80.6875Q502,82.125,498.9375,83.0625Q495.875,84,492,84Q487.625,84,484.5625,82.6875Q481.5,81.375,479.625,79.0625Q477.75,76.75,476.875,73.5625Q476,70.375,476,66.625Q476,65,476.25,61.625Q476.5,58.25,477.4375,54Q478.375,49.75,480.1875,45.3125Q482,40.875,485.0625,37.25Q488.125,33.625,492.6875,31.25Q497.25,28.875,503.75,28.875Q505.75,28.875,508.125,29.25Q510.5,29.625,512.75,30.625Q515,31.625,516.75,33.5Q518.5,35.375,519.5,38.375L520.25,38.375L525.875,30.25ZM511.875,41.125Q508.875,41.125,506.875,44.3125Q504.875,47.5,503.625,51.75Q502.375,56,501.8125,60.1875Q501.25,64.375,501.25,66.375Q501.25,68.875,502.0625,70.5625Q502.875,72.25,505,72.25Q506.25,72.25,507.4375,71.625Q508.625,71,509.6875,70.1875Q510.75,69.375,511.5625,68.5Q512.375,67.625,512.75,67.125L517.375,45.25Q516.375,43.875,515.0625,42.5Q513.75,41.125,511.875,41.125ZM596.375,27.625Q596.75,25.75,596.75,22.5Q596.75,20.625,596.5,18.8125Q596.25,17,595.625,15.5625Q595,14.125,593.75,13.3125Q592.5,12.5,590.5,12.5Q588.25,12.5,586.375,13.5Q584.5,14.5,583.0625,16.0625Q581.625,17.625,580.8125,19.6875Q580,21.75,580,24Q580,27.25,581.6875,29Q583.375,30.75,586.125,31.875Q588.875,33,592.375,33.75Q595.875,34.5,599.625,35.5Q602.75,36.375,605.875,37.75Q609,39.125,611.4375,41.4375Q613.875,43.75,615.375,47.4375Q616.875,51.125,616.875,56.625Q616.875,64.5,613.75,69.875Q610.625,75.25,605.125,78.625Q599.625,82,592.0625,83.5Q584.5,85,575.625,85Q566.625,85,560.9375,83.8125Q555.25,82.625,552,81.25Q548.125,79.625,546.25,77.5L550.5,60.375L572.5,60.375Q572.375,61.5,572.25,63.4375Q572.125,65.375,572.125,66.5Q572.125,68,572.5,69.625Q572.875,71.25,573.6875,72.625Q574.5,74,576,74.875Q577.5,75.75,579.75,75.75Q582.25,75.75,584.1875,74.625Q586.125,73.5,587.4375,71.8125Q588.75,70.125,589.4375,68.0625Q590.125,66,590.125,64Q590.125,61.25,588.8125,59.375Q587.5,57.5,585.25,56.1875Q583,54.875,580.0625,53.9375Q577.125,53,574,52Q571,51.125,567.6875,49.875Q564.375,48.625,561.625,46.375Q558.875,44.125,557.0625,40.6875Q555.25,37.25,555.25,31.875Q555.25,23.875,559.3125,18.4375Q563.375,13,569.5625,9.625Q575.75,6.25,583.125,4.8125Q590.5,3.375,597.125,3.375Q605.875,3.375,612.1875,5.4375Q618.5,7.5,621.75,10.25L617.125,27.625L596.375,27.625ZM629.5,34.875Q635.875,31.75,642.5625,30.3125Q649.25,28.875,657.5,28.875Q665.5,28.875,670.75,30.125Q676,31.375,679.125,33.75Q682.25,36.125,683.5,39.375Q684.75,42.625,684.75,46.75Q684.75,49.125,684.4375,51.875Q684.125,54.625,683.75,56.5L677.875,84L657.75,84L655.5,76L654.75,76Q650.75,80.375,645.4375,82.6875Q640.125,85,634.875,85Q631.875,85,629,84.125Q626.125,83.25,623.875,81.4375Q621.625,79.625,620.25,76.8125Q618.875,74,618.875,70Q618.875,63.5,622.4375,59.6875Q626,55.875,631.8125,53.9375Q637.625,52,644.9375,51.5Q652.25,51,659.625,51Q659.875,49.75,660.25,47.4375Q660.625,45.125,660.625,43.375Q660.625,41.125,659.4375,39.1875Q658.25,37.25,654.5,37.25Q650.125,37.25,648.0625,39.8125Q646,42.375,645.375,46L627.125,46L629.5,34.875ZM658.25,56.875L656,56.875Q652.375,56.875,649.8125,57.8125Q647.25,58.75,645.6875,60.25Q644.125,61.75,643.375,63.625Q642.625,65.5,642.625,67.375Q642.625,70.375,644.1875,71.875Q645.75,73.375,647.875,73.375Q650.5,73.375,653.0625,71.5Q655.625,69.625,656.25,66.5L658.25,56.875ZM691.625,30.25L718.125,30.25L723.25,67L741.5,30.25L754.75,30.25L726.375,84L700.25,84L691.625,30.25ZM777.5,58.875Q777,61.625,776.8125,64.125Q776.625,66.625,776.625,68.625Q776.625,69.75,776.75,71.125Q776.875,72.5,777.3125,73.6875Q777.75,74.875,778.5625,75.6875Q779.375,76.5,780.875,76.5Q782,76.5,783.4375,75.75Q784.875,75,786.3125,73.625Q787.75,72.25,789.0625,70.25Q790.375,68.25,791.125,65.75L811.625,65.75L808.375,79.125Q805.875,80.75,802.625,81.875Q799.375,83,795.75,83.6875Q792.125,84.375,788.375,84.6875Q784.625,85,781.25,85Q775,85,769.625,83.875Q764.25,82.75,760.25,80Q756.25,77.25,753.9375,72.6875Q751.625,68.125,751.625,61.375Q751.625,55.25,753.5625,49.375Q755.5,43.5,760.0625,38.9375Q764.625,34.375,772.3125,31.625Q780,28.875,791.5,28.875Q804,28.875,810.3125,32.75Q816.625,36.625,816.625,44.875Q816.625,48.25,815.625,52.1875Q814.625,56.125,812.625,58.875L777.5,58.875ZM794.125,44Q794.125,40.125,792.875,38.75Q791.625,37.375,789.875,37.375Q787.875,37.375,786.1875,38.6875Q784.5,40,783.125,42.1875Q781.75,44.375,780.625,47.1875Q779.5,50,778.75,53.125L793,53.125Q793.25,51.625,793.5,50Q793.75,48.625,793.9375,47Q794.125,45.375,794.125,44Z" fill="url(#master_svg1_42_4452)" fill-opacity="1"/></g></g></svg>